<mxfile host="app.diagrams.net" modified="2020-06-20T05:31:31.427Z" agent="5.0 (Macintosh; Intel Mac OS X 10_14_5) AppleWebKit/537.36 (KHTML, like Gecko) Chrome/83.0.4103.97 Safari/537.36" etag="rT8_0DQ_PaKeGA4emTpm" version="13.3.0" type="github">
  <diagram id="scJmqbfCqz2e7qvFd-bX" name="Page-1">
    <mxGraphModel dx="2066" dy="1137" grid="1" gridSize="10" guides="1" tooltips="1" connect="1" arrows="1" fold="1" page="1" pageScale="1" pageWidth="827" pageHeight="1169" math="0" shadow="0">
      <root>
        <mxCell id="0" />
        <mxCell id="1" parent="0" />
        <mxCell id="Ywq0-mwW_OO-9VE0cTIP-302" value="" style="aspect=fixed;html=1;points=[];align=center;image;fontSize=12;image=img/lib/mscae/Route_Filter.svg;rotation=-180;" parent="1" vertex="1">
          <mxGeometry x="40" y="450" width="50" height="42" as="geometry" />
        </mxCell>
        <mxCell id="Ywq0-mwW_OO-9VE0cTIP-303" value="" style="verticalLabelPosition=bottom;html=1;verticalAlign=top;align=center;strokeColor=none;fillColor=#00BEF2;shape=mxgraph.azure.git_repository;" parent="1" vertex="1">
          <mxGeometry x="130" y="23" width="50" height="50" as="geometry" />
        </mxCell>
        <mxCell id="Ywq0-mwW_OO-9VE0cTIP-304" value="" style="aspect=fixed;pointerEvents=1;shadow=0;dashed=0;html=1;strokeColor=none;labelPosition=center;verticalLabelPosition=bottom;verticalAlign=top;align=center;fillColor=#00188D;shape=mxgraph.azure.computer" parent="1" vertex="1">
          <mxGeometry x="40" y="110" width="50" height="45" as="geometry" />
        </mxCell>
        <mxCell id="Ywq0-mwW_OO-9VE0cTIP-305" value="" style="shape=image;html=1;verticalAlign=top;verticalLabelPosition=bottom;labelBackgroundColor=#ffffff;imageAspect=0;aspect=fixed;image=https://cdn4.iconfinder.com/data/icons/logos-brands-5/24/jenkins-128.png" parent="1" vertex="1">
          <mxGeometry x="260" y="20" width="53" height="53" as="geometry" />
        </mxCell>
        <mxCell id="Ywq0-mwW_OO-9VE0cTIP-306" value="" style="outlineConnect=0;dashed=0;verticalLabelPosition=bottom;verticalAlign=top;align=center;html=1;shape=mxgraph.aws3.ecr;fillColor=#F58534;gradientColor=none;" parent="1" vertex="1">
          <mxGeometry x="540" y="18" width="70" height="60" as="geometry" />
        </mxCell>
        <mxCell id="Ywq0-mwW_OO-9VE0cTIP-307" value="" style="shape=image;html=1;verticalAlign=top;verticalLabelPosition=bottom;labelBackgroundColor=#ffffff;imageAspect=0;aspect=fixed;image=https://cdn3.iconfinder.com/data/icons/logos-and-brands-adobe/512/97_Docker-128.png" parent="1" vertex="1">
          <mxGeometry x="385" y="23" width="57" height="57" as="geometry" />
        </mxCell>
        <mxCell id="Ywq0-mwW_OO-9VE0cTIP-308" value="" style="outlineConnect=0;dashed=0;verticalLabelPosition=bottom;verticalAlign=top;align=center;html=1;shape=mxgraph.aws3.ec2;fillColor=#F58534;gradientColor=none;" parent="1" vertex="1">
          <mxGeometry x="690" y="82.5" width="70" height="60" as="geometry" />
        </mxCell>
        <mxCell id="Ywq0-mwW_OO-9VE0cTIP-309" value="" style="curved=1;endArrow=classic;html=1;entryX=0;entryY=0.5;entryDx=0;entryDy=0;entryPerimeter=0;" parent="1" target="Ywq0-mwW_OO-9VE0cTIP-303" edge="1">
          <mxGeometry width="50" height="50" relative="1" as="geometry">
            <mxPoint x="50" y="110" as="sourcePoint" />
            <mxPoint x="100" y="60" as="targetPoint" />
            <Array as="points">
              <mxPoint x="100" y="110" />
              <mxPoint x="60" y="70" />
              <mxPoint x="50" y="60" />
            </Array>
          </mxGeometry>
        </mxCell>
        <mxCell id="Ywq0-mwW_OO-9VE0cTIP-311" value="" style="endArrow=classic;html=1;entryX=0;entryY=0.566;entryDx=0;entryDy=0;entryPerimeter=0;" parent="1" target="Ywq0-mwW_OO-9VE0cTIP-305" edge="1">
          <mxGeometry width="50" height="50" relative="1" as="geometry">
            <mxPoint x="180" y="50" as="sourcePoint" />
            <mxPoint x="230" as="targetPoint" />
          </mxGeometry>
        </mxCell>
        <mxCell id="Ywq0-mwW_OO-9VE0cTIP-312" value="" style="endArrow=classic;html=1;entryX=0;entryY=0.566;entryDx=0;entryDy=0;entryPerimeter=0;" parent="1" edge="1">
          <mxGeometry width="50" height="50" relative="1" as="geometry">
            <mxPoint x="305" y="51.26" as="sourcePoint" />
            <mxPoint x="385" y="51.25799999999993" as="targetPoint" />
          </mxGeometry>
        </mxCell>
        <mxCell id="Ywq0-mwW_OO-9VE0cTIP-313" value="" style="endArrow=classic;html=1;entryX=0;entryY=0.566;entryDx=0;entryDy=0;entryPerimeter=0;" parent="1" edge="1">
          <mxGeometry width="50" height="50" relative="1" as="geometry">
            <mxPoint x="450" y="51.260000000000005" as="sourcePoint" />
            <mxPoint x="530" y="51.25799999999994" as="targetPoint" />
          </mxGeometry>
        </mxCell>
        <mxCell id="Ywq0-mwW_OO-9VE0cTIP-315" value="" style="curved=1;endArrow=classic;html=1;" parent="1" edge="1">
          <mxGeometry width="50" height="50" relative="1" as="geometry">
            <mxPoint x="610" y="48" as="sourcePoint" />
            <mxPoint x="720" y="78" as="targetPoint" />
            <Array as="points">
              <mxPoint x="660" y="48" />
              <mxPoint x="680" />
            </Array>
          </mxGeometry>
        </mxCell>
        <mxCell id="Ywq0-mwW_OO-9VE0cTIP-316" value="CArt&lt;br&gt;service&lt;br&gt;prxy" style="html=1;whiteSpace=wrap;comic=1;strokeWidth=2;fontFamily=Comic Sans MS;fontStyle=1;" parent="1" vertex="1">
          <mxGeometry x="180" y="454" width="60" height="46" as="geometry" />
        </mxCell>
        <mxCell id="Ywq0-mwW_OO-9VE0cTIP-317" value="Cart Service&lt;br&gt;read &amp;amp; write&lt;br&gt;Tuned Eventual consistency" style="html=1;whiteSpace=wrap;comic=1;strokeWidth=2;fontFamily=Comic Sans MS;fontStyle=1;" parent="1" vertex="1">
          <mxGeometry x="270" y="420" width="90" height="90" as="geometry" />
        </mxCell>
        <mxCell id="Ywq0-mwW_OO-9VE0cTIP-318" value="" style="endArrow=none;dashed=1;html=1;" parent="1" edge="1">
          <mxGeometry width="50" height="50" relative="1" as="geometry">
            <mxPoint x="120" y="730" as="sourcePoint" />
            <mxPoint x="120" y="350" as="targetPoint" />
            <Array as="points">
              <mxPoint x="120" y="390" />
            </Array>
          </mxGeometry>
        </mxCell>
        <mxCell id="Ywq0-mwW_OO-9VE0cTIP-319" value="" style="endArrow=none;dashed=1;html=1;" parent="1" edge="1">
          <mxGeometry width="50" height="50" relative="1" as="geometry">
            <mxPoint x="402.5" y="719" as="sourcePoint" />
            <mxPoint x="402.5" y="339" as="targetPoint" />
            <Array as="points">
              <mxPoint x="402.5" y="379" />
            </Array>
          </mxGeometry>
        </mxCell>
        <mxCell id="Ywq0-mwW_OO-9VE0cTIP-320" value="Domain aggregate&lt;br&gt;User view&lt;br&gt;catalog view" style="shape=cylinder;whiteSpace=wrap;html=1;boundedLbl=1;backgroundOutline=1;" parent="1" vertex="1">
          <mxGeometry x="560" y="420" width="120" height="82" as="geometry" />
        </mxCell>
        <mxCell id="Ywq0-mwW_OO-9VE0cTIP-321" value="" style="strokeWidth=2;dashed=0;align=center;fontSize=8;shape=rect;fillColor=#fffbc0;strokeColor=#000000;" parent="1" vertex="1">
          <mxGeometry x="437" y="502" width="26" height="18" as="geometry" />
        </mxCell>
        <mxCell id="Ywq0-mwW_OO-9VE0cTIP-322" value="" style="strokeWidth=2;dashed=0;align=center;fontSize=8;shape=rect;fillColor=#fffbc0;strokeColor=#000000;" parent="1" vertex="1">
          <mxGeometry x="390" y="520" width="26" height="18" as="geometry" />
        </mxCell>
        <mxCell id="Ywq0-mwW_OO-9VE0cTIP-323" value="" style="strokeWidth=2;dashed=0;align=center;fontSize=8;shape=rect;fillColor=#fffbc0;strokeColor=#000000;" parent="1" vertex="1">
          <mxGeometry x="484" y="520" width="26" height="18" as="geometry" />
        </mxCell>
        <mxCell id="Ywq0-mwW_OO-9VE0cTIP-324" value="" style="strokeWidth=2;dashed=0;align=center;fontSize=8;shape=rect;fillColor=#fffbc0;strokeColor=#000000;" parent="1" vertex="1">
          <mxGeometry x="390" y="556" width="26" height="18" as="geometry" />
        </mxCell>
        <mxCell id="Ywq0-mwW_OO-9VE0cTIP-325" value="" style="strokeWidth=2;dashed=0;align=center;fontSize=8;shape=rect;fillColor=#fffbc0;strokeColor=#000000;" parent="1" vertex="1">
          <mxGeometry x="484" y="556" width="26" height="18" as="geometry" />
        </mxCell>
        <mxCell id="Ywq0-mwW_OO-9VE0cTIP-326" value="" style="strokeWidth=2;dashed=0;align=center;fontSize=8;shape=rect;fillColor=#fffbc0;strokeColor=#000000;" parent="1" vertex="1">
          <mxGeometry x="437" y="574" width="26" height="18" as="geometry" />
        </mxCell>
        <mxCell id="Ywq0-mwW_OO-9VE0cTIP-327" value="" style="strokeWidth=2;dashed=0;align=center;fontSize=8;shape=rect;fillColor=#c0f5a9;strokeColor=#000000;" parent="1" vertex="1">
          <mxGeometry x="437" y="538" width="26" height="18" as="geometry" />
        </mxCell>
        <mxCell id="Ywq0-mwW_OO-9VE0cTIP-328" value="" style="edgeStyle=none;endArrow=none;dashed=0;html=1;strokeWidth=2;" parent="1" source="Ywq0-mwW_OO-9VE0cTIP-327" target="Ywq0-mwW_OO-9VE0cTIP-321" edge="1">
          <mxGeometry relative="1" as="geometry" />
        </mxCell>
        <mxCell id="Ywq0-mwW_OO-9VE0cTIP-329" value="" style="edgeStyle=none;endArrow=none;dashed=0;html=1;strokeWidth=2;" parent="1" source="Ywq0-mwW_OO-9VE0cTIP-327" target="Ywq0-mwW_OO-9VE0cTIP-322" edge="1">
          <mxGeometry relative="1" as="geometry" />
        </mxCell>
        <mxCell id="Ywq0-mwW_OO-9VE0cTIP-330" value="" style="edgeStyle=none;endArrow=none;dashed=0;html=1;strokeWidth=2;" parent="1" source="Ywq0-mwW_OO-9VE0cTIP-327" target="Ywq0-mwW_OO-9VE0cTIP-323" edge="1">
          <mxGeometry relative="1" as="geometry" />
        </mxCell>
        <mxCell id="Ywq0-mwW_OO-9VE0cTIP-331" value="" style="edgeStyle=none;endArrow=none;dashed=0;html=1;strokeWidth=2;" parent="1" source="Ywq0-mwW_OO-9VE0cTIP-327" target="Ywq0-mwW_OO-9VE0cTIP-324" edge="1">
          <mxGeometry relative="1" as="geometry" />
        </mxCell>
        <mxCell id="Ywq0-mwW_OO-9VE0cTIP-332" value="" style="edgeStyle=none;endArrow=none;dashed=0;html=1;strokeWidth=2;" parent="1" source="Ywq0-mwW_OO-9VE0cTIP-327" target="Ywq0-mwW_OO-9VE0cTIP-325" edge="1">
          <mxGeometry relative="1" as="geometry" />
        </mxCell>
        <mxCell id="Ywq0-mwW_OO-9VE0cTIP-333" value="" style="edgeStyle=none;endArrow=none;dashed=0;html=1;strokeWidth=2;" parent="1" target="Ywq0-mwW_OO-9VE0cTIP-326" edge="1">
          <mxGeometry relative="1" as="geometry">
            <mxPoint x="440" y="600" as="sourcePoint" />
          </mxGeometry>
        </mxCell>
        <mxCell id="Ywq0-mwW_OO-9VE0cTIP-335" value="Service&lt;br&gt;discovery" style="html=1;whiteSpace=wrap;comic=1;strokeWidth=2;fontFamily=Comic Sans MS;fontStyle=1;" parent="1" vertex="1">
          <mxGeometry x="120" y="528" width="70" height="52" as="geometry" />
        </mxCell>
        <mxCell id="Ywq0-mwW_OO-9VE0cTIP-336" value="Notification&lt;br&gt;Service" style="html=1;whiteSpace=wrap;comic=1;strokeWidth=2;fontFamily=Comic Sans MS;fontStyle=1;" parent="1" vertex="1">
          <mxGeometry x="260" y="670" width="70" height="40" as="geometry" />
        </mxCell>
        <mxCell id="Ywq0-mwW_OO-9VE0cTIP-337" value="Order&lt;br&gt;Service" style="html=1;whiteSpace=wrap;comic=1;strokeWidth=2;fontFamily=Comic Sans MS;fontStyle=1;" parent="1" vertex="1">
          <mxGeometry x="270" y="528" width="60" height="38" as="geometry" />
        </mxCell>
        <mxCell id="Ywq0-mwW_OO-9VE0cTIP-340" value="" style="endArrow=classic;html=1;" parent="1" edge="1">
          <mxGeometry width="50" height="50" relative="1" as="geometry">
            <mxPoint x="90" y="470" as="sourcePoint" />
            <mxPoint x="170" y="470" as="targetPoint" />
          </mxGeometry>
        </mxCell>
        <mxCell id="Ywq0-mwW_OO-9VE0cTIP-342" value="" style="endArrow=classic;startArrow=classic;html=1;exitX=1;exitY=0;exitDx=0;exitDy=0;" parent="1" source="Ywq0-mwW_OO-9VE0cTIP-336" edge="1">
          <mxGeometry width="50" height="50" relative="1" as="geometry">
            <mxPoint x="340" y="650" as="sourcePoint" />
            <mxPoint x="400" y="580" as="targetPoint" />
          </mxGeometry>
        </mxCell>
        <mxCell id="Ywq0-mwW_OO-9VE0cTIP-343" value="" style="endArrow=classic;startArrow=classic;html=1;" parent="1" edge="1">
          <mxGeometry width="50" height="50" relative="1" as="geometry">
            <mxPoint x="360" y="470" as="sourcePoint" />
            <mxPoint x="430" y="510" as="targetPoint" />
          </mxGeometry>
        </mxCell>
        <mxCell id="Ywq0-mwW_OO-9VE0cTIP-344" value="" style="endArrow=classic;startArrow=classic;html=1;exitX=1.052;exitY=0.497;exitDx=0;exitDy=0;exitPerimeter=0;" parent="1" source="Ywq0-mwW_OO-9VE0cTIP-337" edge="1">
          <mxGeometry width="50" height="50" relative="1" as="geometry">
            <mxPoint x="345" y="548" as="sourcePoint" />
            <mxPoint x="390" y="548" as="targetPoint" />
            <Array as="points" />
          </mxGeometry>
        </mxCell>
        <mxCell id="Ywq0-mwW_OO-9VE0cTIP-346" value="Domani aggregate&lt;br&gt;User view&lt;br&gt;Pricing&lt;br&gt;shipping" style="shape=cylinder;whiteSpace=wrap;html=1;boundedLbl=1;backgroundOutline=1;" parent="1" vertex="1">
          <mxGeometry x="560" y="610" width="120" height="82" as="geometry" />
        </mxCell>
        <mxCell id="Ywq0-mwW_OO-9VE0cTIP-347" value="" style="endArrow=none;dashed=1;html=1;" parent="1" edge="1">
          <mxGeometry width="50" height="50" relative="1" as="geometry">
            <mxPoint x="530" y="528.76" as="sourcePoint" />
            <mxPoint x="790" y="528.76" as="targetPoint" />
          </mxGeometry>
        </mxCell>
        <mxCell id="Ywq0-mwW_OO-9VE0cTIP-349" value="descriptor&lt;br&gt;cat 1.0.4&lt;br&gt;order 2.0.4" style="whiteSpace=wrap;html=1;aspect=fixed;" parent="1" vertex="1">
          <mxGeometry x="125" y="315" width="80" height="80" as="geometry" />
        </mxCell>
        <mxCell id="Ywq0-mwW_OO-9VE0cTIP-350" value="Consul&lt;br&gt;+ Vault&lt;br&gt;cart: k1-v1&lt;br&gt;order: k1-v1" style="whiteSpace=wrap;html=1;aspect=fixed;" parent="1" vertex="1">
          <mxGeometry x="255" y="315" width="75" height="75" as="geometry" />
        </mxCell>
        <mxCell id="Ywq0-mwW_OO-9VE0cTIP-351" value="Payment&lt;br&gt;Acid /Oracle" style="html=1;whiteSpace=wrap;comic=1;strokeWidth=2;fontFamily=Comic Sans MS;fontStyle=1;" parent="1" vertex="1">
          <mxGeometry x="216.5" y="580" width="120" height="60" as="geometry" />
        </mxCell>
        <mxCell id="Ywq0-mwW_OO-9VE0cTIP-352" value="" style="endArrow=classic;html=1;" parent="1" target="Ywq0-mwW_OO-9VE0cTIP-353" edge="1">
          <mxGeometry width="50" height="50" relative="1" as="geometry">
            <mxPoint x="510" y="540" as="sourcePoint" />
            <mxPoint x="570" y="516" as="targetPoint" />
            <Array as="points">
              <mxPoint x="530" y="546" />
            </Array>
          </mxGeometry>
        </mxCell>
        <mxCell id="Ywq0-mwW_OO-9VE0cTIP-353" value="connector" style="html=1;whiteSpace=wrap;comic=1;strokeWidth=2;fontFamily=Comic Sans MS;fontStyle=1;" parent="1" vertex="1">
          <mxGeometry x="550" y="512" width="70" height="34" as="geometry" />
        </mxCell>
        <mxCell id="Ywq0-mwW_OO-9VE0cTIP-354" value="" style="endArrow=classic;html=1;" parent="1" edge="1">
          <mxGeometry width="50" height="50" relative="1" as="geometry">
            <mxPoint x="620" y="536" as="sourcePoint" />
            <mxPoint x="670" y="500" as="targetPoint" />
            <Array as="points">
              <mxPoint x="670" y="530" />
            </Array>
          </mxGeometry>
        </mxCell>
        <mxCell id="Ywq0-mwW_OO-9VE0cTIP-356" value="Domain aggregate&lt;br&gt;User view&lt;br&gt;catalog view&lt;br&gt;Read Replica" style="shape=cylinder;whiteSpace=wrap;html=1;boundedLbl=1;backgroundOutline=1;" parent="1" vertex="1">
          <mxGeometry x="420" y="405" width="120" height="82" as="geometry" />
        </mxCell>
        <mxCell id="Ywq0-mwW_OO-9VE0cTIP-358" value="" style="endArrow=classic;html=1;" parent="1" source="Ywq0-mwW_OO-9VE0cTIP-320" target="Ywq0-mwW_OO-9VE0cTIP-356" edge="1">
          <mxGeometry width="50" height="50" relative="1" as="geometry">
            <mxPoint x="400" y="480" as="sourcePoint" />
            <mxPoint x="450" y="430" as="targetPoint" />
            <Array as="points">
              <mxPoint x="550" y="380" />
            </Array>
          </mxGeometry>
        </mxCell>
        <mxCell id="Ywq0-mwW_OO-9VE0cTIP-359" value="Fallback&lt;br&gt;storage" style="html=1;whiteSpace=wrap;aspect=fixed;shape=isoCube;backgroundOutline=1;" parent="1" vertex="1">
          <mxGeometry x="720" y="410" width="90" height="100" as="geometry" />
        </mxCell>
        <mxCell id="Ywq0-mwW_OO-9VE0cTIP-361" value="Cache" style="html=1;whiteSpace=wrap;comic=1;strokeWidth=2;fontFamily=Comic Sans MS;fontStyle=1;" parent="1" vertex="1">
          <mxGeometry x="360" y="370" width="70" height="25" as="geometry" />
        </mxCell>
        <mxCell id="Ywq0-mwW_OO-9VE0cTIP-362" value="" style="endArrow=classic;startArrow=classic;html=1;" parent="1" edge="1">
          <mxGeometry width="50" height="50" relative="1" as="geometry">
            <mxPoint x="354" y="440" as="sourcePoint" />
            <mxPoint x="390" y="400" as="targetPoint" />
            <Array as="points">
              <mxPoint x="380" y="420" />
            </Array>
          </mxGeometry>
        </mxCell>
        <mxCell id="Ywq0-mwW_OO-9VE0cTIP-363" value="" style="endArrow=classic;startArrow=classic;html=1;exitX=0.014;exitY=0.151;exitDx=0;exitDy=0;exitPerimeter=0;entryX=0.63;entryY=0.981;entryDx=0;entryDy=0;entryPerimeter=0;" parent="1" source="Ywq0-mwW_OO-9VE0cTIP-356" target="Ywq0-mwW_OO-9VE0cTIP-361" edge="1">
          <mxGeometry width="50" height="50" relative="1" as="geometry">
            <mxPoint x="364" y="450" as="sourcePoint" />
            <mxPoint x="400" y="410" as="targetPoint" />
            <Array as="points">
              <mxPoint x="410" y="430" />
            </Array>
          </mxGeometry>
        </mxCell>
        <mxCell id="Ywq0-mwW_OO-9VE0cTIP-364" value="" style="endArrow=classic;html=1;" parent="1" target="Ywq0-mwW_OO-9VE0cTIP-359" edge="1">
          <mxGeometry width="50" height="50" relative="1" as="geometry">
            <mxPoint x="680" y="460" as="sourcePoint" />
            <mxPoint x="730" y="410" as="targetPoint" />
          </mxGeometry>
        </mxCell>
      </root>
    </mxGraphModel>
  </diagram>
</mxfile>
